<?xml version="1.0" standalone="no"?>
<!DOCTYPE svg PUBLIC "-//W3C//DTD SVG 20010904//EN"
 "http://www.w3.org/TR/2001/REC-SVG-20010904/DTD/svg10.dtd">
<svg version="1.0" xmlns="http://www.w3.org/2000/svg"
 width="492.000000pt" height="492.000000pt" viewBox="0 0 492.000000 492.000000"
 preserveAspectRatio="xMidYMid meet">
<metadata>
Created by potrace 1.14, written by Peter Selinger 2001-2017
</metadata>
<g transform="translate(0.000000,492.000000) scale(0.100000,-0.100000)"
fill="#000000" stroke="none">
<path d="M2816 2964 c-145 -35 -271 -133 -336 -259 -82 -162 -76 -385 17 -560
11 -22 45 -63 75 -91 87 -82 168 -117 310 -135 124 -15 239 1 335 46 174 81
253 218 253 437 l0 98 -245 0 -245 0 0 -105 0 -105 95 0 c107 0 113 -6 75 -67
-29 -48 -90 -75 -169 -75 -119 -1 -195 52 -227 158 -18 61 -18 207 1 270 30
100 111 163 213 164 87 0 153 -41 171 -106 l7 -29 152 -3 152 -3 -6 33 c-31
179 -146 294 -332 334 -84 17 -219 17 -296 -2z"/>
<path d="M1370 2450 l0 -520 130 0 130 0 2 315 3 316 183 -316 183 -315 145 0
144 0 0 520 0 520 -130 0 -130 0 0 -287 0 -288 -163 285 -162 285 -168 3 -167
2 0 -520z"/>
</g>
</svg>
